<?xml version="1.0" encoding="utf-8" standalone="yes"?>
<!DOCTYPE svg PUBLIC "-//W3C//DTD SVG 1.1//EN" "http://www.w3.org/Graphics/SVG/1.1/DTD/svg11.dtd">
<svg style="fill:none;stroke:none;fill-rule:evenodd;clip-rule:evenodd;stroke-linecap:round;stroke-linejoin:round;stroke-miterlimit:1.5;" version="1.1" xmlns="http://www.w3.org/2000/svg" xmlns:xlink="http://www.w3.org/1999/xlink" width="770" height="470" viewBox="0 0 770 470"><style class="text-font-style fontImports" data-font-family="Shantell Sans">@import url(https://fonts.googleapis.com/css2?family=Shantell+Sans:wght@300..800&amp;amp;display=block);</style><g id="items" style="isolation: isolate"><g id="blend" style="mix-blend-mode: normal"><g id="g-root-cp_1_lines-1_924iru122u2h1-fill" data-item-order="999669700" transform="translate(140.18975830078125, 182.34417724609375)"><g id="cp_1_lines-1_924iru122u2h1-fill-merged" stroke="none" fill="#ffd9d8" fill-opacity="1"><g><path d="M166.01 32.756L162.91 32.656L148.31 52.156L165.31 52.656L166.01 32.756 M148.31 52.156L157.31 78.856L174.61 67.556L162.91 32.656L148.31 52.156 M174.61 67.556L132.31 28.556L116.21 40.956L157.31 78.856L174.61 67.556 M116.21 40.956L154.61 113.356L171.01 101.556L132.31 28.556L116.21 40.956 M171.01 101.556L107.21 33.656L91.01 45.656L154.61 113.356L171.01 101.556 M91.01 45.656L143.31 134.956L159.41 122.856L107.21 33.656L91.01 45.656 M159.41 122.856L84.61 45.056L68.41 57.156L143.31 134.956L159.41 122.856 M68.41 57.156L109.91 129.856L125.81 117.356L84.61 45.056L68.41 57.156 M125.81 117.356L78.51 72.956L62.41 85.356L109.91 129.856L125.81 117.356 M62.41 85.356L88.71 134.256L104.41 121.156L78.51 72.956L62.41 85.356 M104.41 121.156L76.11 98.756L63.71 114.456L88.71 134.256L104.41 121.156" fill-rule="nonzero"></path></g></g><g id="cp_1_lines-1_924iru122u2h1-fill-merged" stroke="none" fill="#ffd9d8" fill-opacity="1"><g><path d="M64.11 8.256L64.31 11.156L58.31 23.156L56.31 49.156L75.91 29.656L75.81 24.456 V24.556L64.11 8.256 M75.91 29.656L48.21 28.956L41.21 48.756L56.31 49.156L75.91 29.656 M41.21 48.756L69.51 70.256L77.21 50.956L48.21 28.956L41.21 48.756 M77.21 50.956L37.81 46.456L30.01 65.656L69.51 70.256L77.21 50.956 M30.01 65.656L67.41 94.456L75.21 75.256L37.81 46.456L30.01 65.656 M75.21 75.256L19.71 68.656L14.11 88.156L67.41 94.456L75.21 75.256 M14.11 88.156L64.61 112.356L67.51 91.556L19.71 68.656L14.11 88.156 M67.51 91.556L31.41 97.656L29.91 118.156L64.61 112.356L67.51 91.556 M29.91 118.156L68.81 131.056L71.51 110.856L31.41 97.656L29.91 118.156 M71.51 110.856L50.51 112.156L42.21 132.656L68.81 131.056L71.51 110.856 M42.21 132.656L67.41 160.256L72.31 135.956L50.51 112.156L42.21 132.656 M72.31 135.956L59.91 141.756L68.21 159.856L67.41 160.256L72.31 135.956" fill-rule="nonzero"></path></g></g></g><g id="g-root-cp_2_lines-2_6hiiy122u39q-fill" data-item-order="999669716" transform="translate(297, 207)"><g id="cp_2_lines-2_6hiiy122u39q-fill-merged" stroke="none" fill="#ffe4cb" fill-opacity="1"><g><path d="M18.9 2.5L14 5.6L19.5 25.7L29.4 19.6L18.9 2.5 M19.5 25.7L55.6 26.4L49 6.2L14 5.6L19.5 25.7 M49 6.2L6.5 38.6L16.6 56L55.6 26.4L49 6.2 M16.6 56L91.8 24.6L81.2 7.4L6.5 38.6L16.6 56 M81.2 7.4L6.4 71.8L18.2 88L91.8 24.6L81.2 7.4 M18.2 88L111.9 31L99.2 15.3L6.4 71.8L18.2 88 M99.2 15.3L20.7 97.8L33.6 113.3L111.9 31L99.2 15.3 M33.6 113.3L110 64.3L97.7 48.5L20.7 97.8L33.6 113.3 M97.7 48.5L48.7 94L60.1 110.8L110 64.3L97.7 48.5 M60.1 110.8L110.1 87.6L98.5 70.9L48.7 94L60.1 110.8 M98.5 70.9L76.4 92.8L90.5 107L110.1 87.6L98.5 70.9" fill-rule="nonzero"></path></g></g></g><g id="g-root-cp_3_lines-3_6hiiy122u39r-fill" data-item-order="999669724" transform="translate(393, 207)"><g id="cp_3_lines-3_6hiiy122u39r-fill-merged" stroke="none" fill="#fff8b6" fill-opacity="1"><g><path d="M20.8 5.6L8 8.6L12.2 28.1L25.2 25.1L20.8 5.6 M12.2 28.1L56.4 19.1L45.6 0.9L8 8.6L12.2 28.1 M45.6 0.9L8.7 44.4L21.8 59.9L56.4 19.1L45.6 0.9 M21.8 59.9L83.2 22.8L71.1 6.8L8.7 44.4L21.8 59.9 M71.1 6.8L4.8 68.9L16.8 85.1L83.2 22.8L71.1 6.8 M16.8 85.1L108.6 32.6L96.2 16.7L4.8 68.9L16.8 85.1 M96.2 16.7L16.3 99L29.4 114.2L108.6 32.6L96.2 16.7 M29.4 114.2L105.7 60.6L93.1 45.1L16.3 99L29.4 114.2 M93.1 45.1L46.2 89.4L56 107.7L105.7 60.6L93.1 45.1 M56 107.7L109.6 95.3L98.8 77.2L46.2 89.4L56 107.7 M98.8 77.2L79 99.7L94 112.9L109.6 95.3L98.8 77.2" fill-rule="nonzero"></path></g></g></g><g id="g-root-cp_4_lines-4_1urs2dm122u3uw-fill" data-item-order="999669732" transform="translate(489, 182)"><g id="cp_4_lines-4_1urs2dm122u3uw-fill-merged" stroke="none" fill="#c8ffe5" fill-opacity="1"><g><path d="M7.9 29.2L3.8 37.6L17.3 55.4L25.8 38L7.9 29.2 M17.3 55.4L55.3 48.4L45.8 29.8L3.8 37.6L17.3 55.4 M45.8 29.8L4 69.7L15.7 86.2L55.3 48.4L45.8 29.8 M15.7 86.2L91.6 47.6L79.4 31.4L4 69.7L15.7 86.2 M79.4 31.4L10.3 104.8L24 119.4L91.6 47.6L79.4 31.4 M24 119.4L105.8 52.3L92 37.8L10.3 104.8L24 119.4 M92 37.8L20.7 116.3L33.5 131.9L105.8 52.3L92 37.8 M33.5 131.9L112 84.6L99.8 68.6L20.7 116.3L33.5 131.9 M99.8 68.6L46.5 119L57.2 136.5L112 84.6L99.8 68.6 M57.2 136.5L108.5 118.3L98.2 100.7L46.5 119L57.2 136.5 M98.2 100.7L78.8 117.7L92 132.7L108.5 118.3L98.2 100.7" fill-rule="nonzero"></path></g></g><g id="cp_4_lines-4_1urs2dm122u3uw-fill-merged" stroke="none" fill="#c8ffe5" fill-opacity="1"><g><path d="M99 155.7L109.9 158.6L125 141.9L104.2 136.4L99 155.7 M125 141.9L115.3 116.4L100.4 133.6L109.9 158.6L125 141.9 M100.4 133.6L126.2 139.3L136 121L115.3 116.4L100.4 133.6 M136 121L111.4 97.3L105 118.9L126.2 139.3L136 121 M105 118.9L150 110L151.1 89.4L111.4 97.3L105 118.9 M151.1 89.4L103.9 75.1L100.9 95.1L150 110L151.1 89.4 M100.9 95.1L158.6 95L162.6 75L103.9 75.1L100.9 95.1 M162.6 75L108.3 52.5L104.3 72.5L158.6 95L162.6 75 M104.3 72.5L145.6 72.8L150.2 52.8L108.3 52.5L104.3 72.5 M150.2 52.8L109.4 33.3L108.1 54.9L145.6 72.8L150.2 52.8 M108.1 54.9L125.1 49.1L129.5 26.5L109.4 33.3L108.1 54.9 M129.5 26.5L110.8 10.5L100.1 27.7L125.1 49.1L129.5 26.5 M100.1 27.7L107.2 30.7L115 12.3L110.8 10.5L100.1 27.7" fill-rule="nonzero"></path></g></g></g><g id="g-root-tx_asistent_zpo0lm122u4n7-fill" data-item-order="1000000000" transform="translate(237, 75)"><g id="tx_asistent_zpo0lm122u4n7-fill-merged" stroke="none" fill="#484848" fill-opacity="1"><g><text style="font: bold 20px &quot;Shantell Sans&quot;, cursive; white-space: pre;" font-weight="bold" font-size="20px" font-family="'Shantell Sans', cursive"><tspan x="14.24" y="35.6" dominant-baseline="ideographic">Asistente de </tspan><tspan x="41.06" y="59.6" dominant-baseline="ideographic">estudio</tspan></text></g></g></g><g id="g-root-tx_pensamie_metzbe122u32d-fill" data-item-order="1000000000" transform="translate(423, 87)"><g id="tx_pensamie_metzbe122u32d-fill-merged" stroke="none" fill="#484848" fill-opacity="1"><g><text style="font: bold 20px &quot;Shantell Sans&quot;, cursive; white-space: pre;" font-weight="bold" font-size="20px" font-family="'Shantell Sans', cursive"><tspan x="13.78" y="35.6" dominant-baseline="ideographic">Pensamiento </tspan><tspan x="46.99" y="59.6" dominant-baseline="ideographic">crítico</tspan></text></g></g></g><g id="g-root-tx_riesgos_1d14iyy122u32a-fill" data-item-order="1000000000" transform="translate(81, 147)"><g id="tx_riesgos_1d14iyy122u32a-fill-merged" stroke="none" fill="#484848" fill-opacity="1"><g><text style="font: 20px &quot;Shantell Sans&quot;, cursive; white-space: pre;" font-size="20px" font-family="'Shantell Sans', cursive"><tspan x="15.26" y="35.6" dominant-baseline="ideographic">Riesgos</tspan></text></g></g></g><g id="g-root-tx_apoyonos_qunhfu122u2a4-fill" data-item-order="1000000000" transform="translate(219, 135)"><g id="tx_apoyonos_qunhfu122u2a4-fill-merged" stroke="none" fill="#484848" fill-opacity="1"><g><text style="font: 15px &quot;Shantell Sans&quot;, cursive; white-space: pre;" font-size="15px" font-family="'Shantell Sans', cursive"><tspan x="29.75" y="37.4" dominant-baseline="ideographic">Apoyo, no sustituto</tspan></text></g></g></g><g id="g-root-tx_ticadigi_dj6z2i122u3v2-fill" data-item-order="1000000000" transform="translate(447, 147)"><g id="tx_ticadigi_dj6z2i122u3v2-fill-merged" stroke="none" fill="#484848" fill-opacity="1"><g><text style="font: 15px &quot;Shantell Sans&quot;, cursive; white-space: pre;" font-size="15px" font-family="'Shantell Sans', cursive"><tspan x="14.18" y="31.4" dominant-baseline="ideographic">Ética digital</tspan></text></g></g></g><g id="g-root-tx_oportuni_93dgy2122u4nb-fill" data-item-order="1000000000" transform="translate(585, 147)"><g id="tx_oportuni_93dgy2122u4nb-fill-merged" stroke="none" fill="#484848" fill-opacity="1"><g><text style="font: 20px &quot;Shantell Sans&quot;, cursive; white-space: pre;" font-size="20px" font-family="'Shantell Sans', cursive"><tspan x="16.96" y="35.6" dominant-baseline="ideographic">Oportunidades</tspan></text></g></g></g><g id="g-root-ic_warn_4o6fwq122u29s-fill" data-item-order="1000000000" transform="translate(225, 231)"></g><g id="g-root-ic_desk_142zpje122da0w-fill" data-item-order="1000000000" transform="translate(321, 231)"></g><g id="g-root-ic_mail_hv9pu2122lon6-fill" data-item-order="1000000000" transform="translate(417, 231)"></g><g id="g-root-ic_brai_qrj762122raq2-fill" data-item-order="1000000000" transform="translate(513, 231)"></g><g id="g-root-tx_plagioau_v5ha16122sp37-fill" data-item-order="1000000000" transform="translate(225, 339)"><g id="tx_plagioau_v5ha16122sp37-fill-merged" stroke="none" fill="#484848" fill-opacity="1"><g><text style="font: bold 20px &quot;Shantell Sans&quot;, cursive; white-space: pre;" font-weight="bold" font-size="20px" font-family="'Shantell Sans', cursive"><tspan x="43.45" y="35.6" dominant-baseline="ideographic">Plagio </tspan><tspan x="16.41" y="59.6" dominant-baseline="ideographic">automático</tspan></text></g></g></g><g id="g-root-tx_cdigoens_8z08i2122sob1-fill" data-item-order="1000000000" transform="translate(393, 339)"><g id="tx_cdigoens_8z08i2122sob1-fill-merged" stroke="none" fill="#484848" fill-opacity="1"><g><text style="font: bold 20px &quot;Shantell Sans&quot;, cursive; white-space: pre;" font-weight="bold" font-size="20px" font-family="'Shantell Sans', cursive"><tspan x="12.96" y="35.6" dominant-baseline="ideographic">Código/ensayos</tspan></text></g></g></g><g id="g-root-tx_puntodep_4j6qdm122sp3a-fill" data-item-order="1000000000" transform="translate(405, 375)"><g id="tx_puntodep_4j6qdm122sp3a-fill-merged" stroke="none" fill="#484848" fill-opacity="1"><g><text style="font: 15px &quot;Shantell Sans&quot;, cursive; white-space: pre;" font-size="15px" font-family="'Shantell Sans', cursive"><tspan x="16.26" y="28.4" dominant-baseline="ideographic">Punto de partida, </tspan><tspan x="16.95" y="46.4" dominant-baseline="ideographic">no producto final</tspan></text></g></g></g><g id="g-root-tx_faltader_hun8qy122snic-fill" data-item-order="1000000000" transform="translate(225, 399)"><g id="tx_faltader_hun8qy122snic-fill-merged" stroke="none" fill="#484848" fill-opacity="1"><g><text style="font: 15px &quot;Shantell Sans&quot;, cursive; white-space: pre;" font-size="15px" font-family="'Shantell Sans', cursive"><tspan x="12.04" y="31.4" dominant-baseline="ideographic">Falta de reflexión</tspan></text></g></g></g><g id="g-root-cp_1_lines-1_924iru122u2h1-stroke" data-item-order="999669700" transform="translate(140.18975830078125, 182.34417724609375)"><g id="cp_1_lines-1_924iru122u2h1-stroke" fill="none" stroke-linecap="round" stroke-linejoin="round" stroke-miterlimit="4" stroke="#484848" stroke-width="4" stroke-opacity="1"><g><path d="M 70.810242 34.655823L 162.810242 34.655823C 165.019342 34.655823 166.810242 36.446723 166.810242 38.655823L 166.810242 126.655823C 166.810242 128.864923 165.019342 130.655823 162.810242 130.655823L 70.810242 130.655823L 70.810242 34.655823ZM 70.810242 34.655823C 101.510242 34.455823 132.210242 33.355823 162.810242 34.655823C 165.010242 34.755823 166.210242 36.555823 166.810242 38.655823C 170.910242 52.655823 165.510242 67.855823 166.810242 82.255823C 168.110242 97.055823 168.810242 111.955823 166.810242 126.655823C 166.510242 128.855823 164.910242 130.055823 162.810242 130.655823C 147.510242 135.255823 130.810242 129.255823 115.010242 130.655823C 100.310242 131.955823 85.410242 132.055823 70.810242 130.655823C 71.310242 114.955823 69.910242 99.155823 70.810242 83.455823C 71.710242 67.255823 68.910242 50.855823 70.810242 34.655823"></path></g></g><g id="cp_1_lines-1_924iru122u2h1-stroke" fill="none" stroke-linecap="round" stroke-linejoin="round" stroke-miterlimit="4" stroke="#484848" stroke-width="4" stroke-opacity="1"><g><path d="M 71.810227 34.655785L 71.810227 12.003985C 71.810227 10.129485 69.463127 9.284885 68.268727 10.729685L 10.917027 80.107285C 9.694327 81.586285 9.694327 83.725285 10.917027 85.204385L 68.268727 154.581985C 69.463127 156.026785 71.810227 155.182185 71.810227 153.307685L 71.810227 130.655785M 71.810242 34.655823C 71.610242 27.055823 70.510242 19.455823 71.810242 11.955823C 72.110242 10.155823 69.010242 9.055823 68.310242 10.755823C 62.410242 24.355823 48.310242 32.855823 39.810242 45.155823C 31.210242 57.555823 22.010242 69.855823 10.910242 80.155823C 9.510242 81.455823 9.310242 84.155823 10.910242 85.155823C 23.910242 93.855823 29.810242 110.155823 40.710242 121.255823C 50.810242 131.555823 60.210242 142.655823 68.310242 154.555823C 69.310242 156.155823 71.310242 155.055823 71.810242 153.355823C 73.910242 146.055823 71.310242 138.155823 71.810242 130.655823"></path></g></g></g><g id="g-root-cp_2_lines-2_6hiiy122u39q-stroke" data-item-order="999669716" transform="translate(297, 207)"><g id="cp_2_lines-2_6hiiy122u39q-stroke" fill="none" stroke-linecap="round" stroke-linejoin="round" stroke-miterlimit="4" stroke="#484848" stroke-width="4" stroke-opacity="1"><g><path d="M 10 14C 10 11.7909 11.7909 10 14 10L 102 10C 104.2091 10 106 11.7909 106 14L 106 102C 106 104.2091 104.2091 106 102 106L 14 106C 11.7909 106 10 104.2091 10 102L 10 14ZM 10 14C 10.2 11.8 11.8 10.1 14 10C 43.3 9.3 72.7 11.3 102 10C 104.2 9.9 105.2 12 106 14C 116.9 41.2 104.4 72.7 106 102C 106.1 104.2 104.1 106.6 102 106C 86.5 101.7 69.7 104.7 53.6 106C 40.5 107.1 27.1 107.2 14 106C 11.8 105.8 10.4 104.2 10 102C 5.1 73.1 10.1 43.3 10 14"></path></g></g></g><g id="g-root-cp_3_lines-3_6hiiy122u39r-stroke" data-item-order="999669724" transform="translate(393, 207)"><g id="cp_3_lines-3_6hiiy122u39r-stroke" fill="none" stroke-linecap="round" stroke-linejoin="round" stroke-miterlimit="4" stroke="#484848" stroke-width="4" stroke-opacity="1"><g><path d="M 10 14C 10 11.7909 11.7909 10 14 10L 102 10C 104.2091 10 106 11.7909 106 14L 106 102C 106 104.2091 104.2091 106 102 106L 14 106C 11.7909 106 10 104.2091 10 102L 10 14ZM 10 14C 9.9 11.8 11.8 10.2 14 10C 27.4 8.9 40.9 9.8 54.4 10C 70.3 10.2 86.2 8.9 102 10C 104.2 10.2 105.9 11.8 106 14C 106.8 29.9 104.6 46 106 61.8C 107.2 75.2 107 88.7 106 102C 105.8 104.2 104.2 106.2 102 106C 72.8 103.1 43.3 105.2 14 106C 11.8 106.1 9.6 104.2 10 102C 12.5 87.4 8.2 72.2 10 57.4C 11.7 43.1 9.4 28.5 10 14"></path></g></g></g><g id="g-root-cp_4_lines-4_1urs2dm122u3uw-stroke" data-item-order="999669732" transform="translate(489, 182)"><g id="cp_4_lines-4_1urs2dm122u3uw-stroke" fill="none" stroke-linecap="round" stroke-linejoin="round" stroke-miterlimit="4" stroke="#484848" stroke-width="4" stroke-opacity="1"><g><path d="M 10 39C 10 36.7909 11.7909 35 14 35L 106 35L 106 131L 14 131C 11.7909 131 10 129.2091 10 127L 10 39ZM 10 39C 10.6 36.9 11.8 35.5 14 35C 29.7 31.5 46.3 36.1 62.4 35C 76.9 34 91.5 35.8 106 35C 105.4 67 106.9 99 106 131C 92 130.3 77.9 131.7 63.9 131C 47.3 130.2 30.5 132.8 14 131C 11.8 130.8 10 129.2 10 127C 9.9 113.3 11.6 99.4 10 85.8C 8.1 70.3 10.1 54.6 10 39"></path></g></g><g id="cp_4_lines-4_1urs2dm122u3uw-stroke" fill="none" stroke-linecap="round" stroke-linejoin="round" stroke-miterlimit="4" stroke="#484848" stroke-width="4" stroke-opacity="1"><g><path d="M 105 35L 105 12.004C 105 10.1295 107.3472 9.2849 108.5415 10.7297L 165.8932 80.1073C 167.1159 81.5863 167.1159 83.7253 165.8932 85.2044L 108.5415 154.582C 107.3471 156.0268 105 155.1822 105 153.3077L 105 131M 105 35C 105.8 27.4 106.1 19.6 105 12C 104.7 10.1 107.3 9.4 108.5 10.7C 129.2 32.5 145.5 58.1 165.9 80.1C 167.2 81.5 167.2 83.8 165.9 85.2C 156.4 95.1 148.8 106.7 139.7 116.9C 128.8 129 119.5 142.6 108.5 154.6C 107.3 156 104.5 155.1 105 153.3C 107.1 146.2 103.2 138.2 105 131"></path></g></g></g><g id="g-root-tx_asistent_zpo0lm122u4n7-stroke" data-item-order="1000000000" transform="translate(237, 75)"></g><g id="g-root-tx_pensamie_metzbe122u32d-stroke" data-item-order="1000000000" transform="translate(423, 87)"></g><g id="g-root-tx_riesgos_1d14iyy122u32a-stroke" data-item-order="1000000000" transform="translate(81, 147)"></g><g id="g-root-tx_apoyonos_qunhfu122u2a4-stroke" data-item-order="1000000000" transform="translate(219, 135)"></g><g id="g-root-tx_ticadigi_dj6z2i122u3v2-stroke" data-item-order="1000000000" transform="translate(447, 147)"></g><g id="g-root-tx_oportuni_93dgy2122u4nb-stroke" data-item-order="1000000000" transform="translate(585, 147)"></g><g id="g-root-ic_warn_4o6fwq122u29s-stroke" data-item-order="1000000000" transform="translate(225, 231)"><g id="ic_warn_4o6fwq122u29s-stroke" fill="none" stroke-linecap="round" stroke-linejoin="round" stroke-miterlimit="4" stroke="#484848" stroke-width="2" stroke-opacity="1"><g><path d="M 19 27L 38 27M 19 33L 38 33M 19 21L 33 21M 19 39L 33 39M 19 45L 28 45M 27 57L 13 57C 11.895431 57 11 56.104568 11 55L 11 13C 11 11.895431 11.895431 11 13 11L 39.585999 11C 40.11639 11.000113 40.625015 11.210901 41 11.586L 48.414001 19C 48.789101 19.374985 48.999886 19.88361 49 20.414L 49 27M 45 51C 45.276142 51 45.5 51.223858 45.5 51.5C 45.5 51.776142 45.276142 52 45 52C 44.723858 52 44.5 51.776142 44.5 51.5C 44.5 51.223858 44.723858 51 45 51M 45 47L 45 41M 46.675999 35C 46.345634 34.381348 45.701336 33.995003 45 33.995003C 44.298668 33.995003 43.654366 34.381348 43.324001 35L 33.211998 54.27C 32.908127 54.847462 32.931698 55.54245 33.274002 56.098C 33.620461 56.656097 34.231113 56.995094 34.888 56.994003L 55.112 56.993999C 55.76889 56.995094 56.379543 56.656097 56.726002 56.098003C 57.068298 55.54245 57.091869 54.847462 56.787998 54.27ZM 19 27C 25.4 27.200001 32 25.200001 38 27M 19 33C 25.200001 32.200001 31.799999 32.200001 38 33M 19 21C 23.6 19.799999 28.6 19.799999 33 21M 19 39C 23.6 39.200001 28.4 38.400002 33 39M 19 45C 22 45.400002 25.200001 46.200001 28 45M 27 57C 22.4 57.200001 17.6 56.799999 13 57C 11.8 57 11.2 56 11 55C 9.4 41 13.8 26.799999 11 13C 10.8 12 12 10.6 13 11C 21.4 13.8 30.799999 12.6 39.599998 11C 40.200001 11 40.599998 11.4 41 11.6C 44.200001 13.2 45.400002 17.4 48.400002 19C 48.799999 19.200001 49 19.799999 49 20.4C 49.400002 22.6 49.200001 24.799999 49 27M 45 51C 45.200001 51 45.599998 51.200001 45.599998 51.599998C 45.400002 51.799999 45.200001 52 45 52C 44.799999 52 44.400002 51.799999 44.599998 51.599998C 44.599998 51.200001 44.799999 51 45 51M 45 47C 44.599998 45 45.200001 43 45 41M 46.599998 35C 46.200001 34.400002 45.599998 34.200001 45 34C 44.400002 33.799999 43.599998 34.400002 43.400002 35C 40.799999 41.799999 37 48 33.200001 54.200001C 32.799999 54.799999 33 55.599998 33.200001 56C 33.599998 56.599998 34.200001 57 34.799999 57C 41.599998 57.799999 48.799999 54.599998 55.200001 57C 55.799999 57.200001 56.200001 56.599998 56.799999 56C 57.200001 55.599998 57 55 56.799999 54.200001C 55.400002 47.200001 47.599998 42.200001 46.599998 35"></path></g></g></g><g id="g-root-ic_desk_142zpje122da0w-stroke" data-item-order="1000000000" transform="translate(321, 231)"><g id="ic_desk_142zpje122da0w-stroke" fill="none" stroke-linecap="round" stroke-linejoin="round" stroke-miterlimit="4" stroke="#484848" stroke-width="2" stroke-opacity="1"><g><path d="M 55.228001 40.32C 55.091351 40.727402 54.709709 41.001961 54.279999 41.001999L 13.72 41.001999C 13.290291 41.001961 12.908648 40.727402 12.772 40.32L 11.438 36.32C 11.335568 36.01461 11.386513 35.678577 11.57486 35.417274C 11.763206 35.155968 12.06589 35.001385 12.388 35.001999L 55.612 35.001999C 55.934109 35.001385 56.236794 35.155968 56.42514 35.417274C 56.613487 35.678577 56.664433 36.01461 56.562 36.32ZM 16 41.001999L 13 57.001999M 52 41.001999L 55 57.001999M 31.757999 12.76C 34.106827 10.449644 37.879211 10.465441 40.208607 12.795387C 42.538002 15.125334 42.55291 18.897717 40.242001 21.246ZM 40.472 13C 43.52581 13 46.001102 15.476189 46 18.529999L 46 31M 29 29L 19 29C 17.343145 29 16 30.343147 16 32C 16 33.656853 17.343145 35 19 35L 29 35ZM 31 23.001999L 29 23.001999M 31 29.002001L 29 29.002001M 29 23L 19 23C 17.343145 23 16 24.343147 16 26C 16 27.656855 17.343145 29 19 29L 29 29ZM 50 35L 42 35C 42 32.790863 43.790859 31 46 31C 48.209141 31 50 32.790863 50 35ZM 55.200001 40.400002C 55 40.799999 54.799999 40.799999 54.200001 41C 41.200001 44.200001 27.200001 41.599998 13.8 41C 13.2 41 12.8 40.799999 12.8 40.400002C 12.8 39 12.2 37.599998 11.4 36.400002C 11.2 36 11.4 35.799999 11.6 35.400002C 11.6 35.200001 12 35 12.4 35C 26.799999 33.400002 41.400002 32.799999 55.599998 35C 56 35 56.200001 35.200001 56.400002 35.400002C 56.599998 35.599998 56.599998 36 56.599998 36.400002C 56.599998 37.799999 55.799999 39 55.200001 40.400002M 16 41C 13.8 46 13.2 51.599998 13 57M 52 41C 52.799999 46.400002 52.200001 52.200001 55 57M 31.799999 12.8C 33.599998 10 37.799999 10.6 40.200001 12.8C 42.799999 15 43.200001 19.799999 40.200001 21.200001C 37.400002 18.6 33.599998 16.200001 31.799999 12.8M 40.400002 13C 43.400002 12.2 45.400002 15.6 46 18.6C 46.799999 22.6 45 27 46 31M 29 29C 25.6 28.4 22.4 29.200001 19 29C 17.4 29 15.6 30.4 16 32C 16.4 33.599998 17.4 34.400002 19 35C 22.200001 36 25.6 34.799999 29 35C 28.4 33.200001 28.6 31 29 29M 31 23C 30.4 23 29.6 23 29 23M 31 29C 30.4 29 29.6 29 29 29M 29 23C 25.6 23.200001 22.200001 23.6 19 23C 17.4 22.799999 16 24.4 16 26C 16 27.6 17.4 28.799999 19 29C 22.4 29.4 25.6 29 29 29C 28.4 27.200001 28.6 25 29 23M 50 35C 47.400002 35.599998 44.599998 35.400002 42 35C 42.599998 32.799999 43.799999 31.200001 46 31C 48.200001 30.799999 49.400002 32.799999 50 35"></path></g></g></g><g id="g-root-ic_mail_hv9pu2122lon6-stroke" data-item-order="1000000000" transform="translate(417, 231)"><g id="ic_mail_hv9pu2122lon6-stroke" fill="none" stroke-linecap="round" stroke-linejoin="round" stroke-miterlimit="4" stroke="#484848" stroke-width="2" stroke-opacity="1"><g><path d="M 56.5 41.5L 56.5 53.5C 56.5 55.099998 55.099998 56.5 53.5 56.5L 35.5 56.5C 33.900002 56.5 32.5 55.099998 32.5 53.5L 32.5 41.5M 56.5 41.5C 56.5 39.900002 55.099998 38.5 53.5 38.5L 35.5 38.5C 33.900002 38.5 32.5 39.900002 32.5 41.5L 42.900002 48.099998C 43.900002 48.700001 45.099998 48.700001 46.099998 48.099998L 56.5 41.5ZM 25.2694 52.897999L 11.5 56.5L 15.09202 42.6926M 25.2694 52.897999L 15.09202 42.6926M 25.2694 52.897999L 27.06542 51.097M 15.09202 42.6926L 44.027802 13.67682C 46.821602 10.875308 51.4114 10.675198 54.404598 13.67682C 57.198399 16.47834 57.198399 21.08074 54.404598 24.08238L 46.0704 32.416801M 43.229401 14.4772L 53.6208 24.86846M 48.424 30.0632L 38.041 19.68022M 56.599998 41.599998C 56.599998 45.599998 55.200001 49.799999 56.599998 53.599998C 57 55 55 56.200001 53.599998 56.599998C 47.599998 57.799999 41.400002 55.599998 35.599998 56.599998C 34 56.799999 33 55 32.599998 53.599998C 31.200001 49.599998 31.6 45.400002 32.599998 41.599998M 56.599998 41.599998C 56.599998 39.799999 55 39 53.599998 38.599998C 47.799999 36.599998 41.599998 38.599998 35.599998 38.599998C 34 38.400002 32.200001 40 32.599998 41.599998C 36 43.599998 40.400002 44.799999 43 48.200001C 44 48.599998 45 48.599998 46.200001 48.200001C 49 45.200001 53 43.599998 56.599998 41.599998M 25.200001 52.799999C 20.6 52.599998 16.200001 55.599998 11.6 56.599998C 12.4 51.799999 12.4 46.599998 15 42.599998M 25.200001 52.799999C 21.4 50 18.4 46.200001 15 42.599998M 25.200001 52.799999C 26 52.400002 26.6 51.799999 27 51M 15 42.599998C 25.4 33.799999 35.799999 24.6 44 13.6C 46.400002 10.6 52 10.2 54.400002 13.6C 56.599998 17 56.200001 20.4 54.400002 24C 50.799999 25.799999 47.599998 28.799999 46 32.400002M 43.200001 14.4C 46 18.4 51.400002 20.6 53.599998 24.799999M 48.400002 30C 45.200001 26.4 42.400002 22 38 19.6"></path></g></g></g><g id="g-root-ic_brai_qrj762122raq2-stroke" data-item-order="1000000000" transform="translate(513, 231)"><g id="ic_brai_qrj762122raq2-stroke" fill="none" stroke-linecap="round" stroke-linejoin="round" stroke-miterlimit="4" stroke="#484848" stroke-width="2" stroke-opacity="1"><g><path d="M 57.166 34C 57.160934 37.138275 54.730751 39.738739 51.599998 39.956001C 53.427505 42.303398 53.681461 45.513618 52.245777 48.119164C 50.810097 50.724709 47.960644 52.224922 45 51.934002C 45.443184 53.422901 44.984238 55.033749 43.822891 56.065502C 42.661549 57.097256 41.007858 57.3633 39.581512 56.747849C 38.155167 56.132397 37.214157 54.746777 37.167999 53.194C 35.309055 54.26965 33.016945 54.26965 31.158001 53.194C 31.108984 54.744835 30.167524 56.127419 28.742512 56.74128C 27.317497 57.355141 25.666035 57.089523 24.505373 56.059788C 23.344711 55.030052 22.88426 53.421993 23.324001 51.933998C 20.363358 52.224922 17.513905 50.724709 16.078224 48.119164C 14.642542 45.513618 14.896498 42.303398 16.724001 39.956001C 13.592808 39.741184 11.16261 37.13855 11.16261 34C 11.16261 30.861448 13.592808 28.258814 16.723999 28.044001C 14.896498 25.696602 14.642542 22.486382 16.078224 19.880836C 17.513905 17.275291 20.363358 15.775082 23.324001 16.066C 22.88426 14.578009 23.344711 12.969946 24.505373 11.940212C 25.666035 10.910478 27.317497 10.64486 28.742512 11.258721C 30.167524 11.872582 31.108984 13.255166 31.158001 14.806C 33.016945 13.73035 35.309055 13.73035 37.167999 14.806C 37.214157 13.253224 38.155167 11.867601 39.581512 11.252151C 41.007858 10.636702 42.661549 10.902744 43.822891 11.934498C 44.984238 12.966251 45.443184 14.577099 45 16.066C 47.960644 15.775082 50.810097 17.275291 52.245777 19.880836C 53.681461 22.486382 53.427505 25.696602 51.600002 28.044001C 54.730751 28.261261 57.160934 30.861725 57.166 34ZM 34.166 43L 34.166 45M 34.166 37L 34.166 39M 40.402 37L 40.402 39M 34.166 25L 34.166 27M 34.166 19L 34.166 21M 34.166 49L 34.166 51M 24.166 22C 24.166 23.656855 25.509148 25 27.166 25C 28.822855 25 30.166 23.656855 30.166 22C 30.166 20.343147 28.822855 19 27.166 19C 25.509148 19 24.166 20.343147 24.166 22ZM 39.166 27C 39.166 28.656855 40.509148 30 42.166 30C 43.822857 30 45.166 28.656855 45.166 27C 45.166 25.343147 43.822857 24 42.166 24C 40.509148 24 39.166 25.343147 39.166 27ZM 21.166 44C 21.166 45.656857 22.509146 47 24.166 47C 25.822855 47 27.166 45.656857 27.166 44C 27.166 42.343147 25.822855 41 24.166 41C 22.509146 41 21.166 42.343147 21.166 44ZM 38.166 45C 38.166 46.656857 39.509148 48 41.166 48C 42.822857 48 44.166 46.656857 44.166 45C 44.166 43.343147 42.822857 42 41.166 42C 39.509148 42 38.166 43.343147 38.166 45ZM 43.166 36C 43.166 37.656853 44.509148 39 46.166 39C 47.822857 39 49.166 37.656853 49.166 36C 49.166 34.343147 47.822857 33 46.166 33C 44.509148 33 43.166 34.343147 43.166 36ZM 45.167999 27C 46.272568 27 47.167999 26.10457 47.167999 25L 47.167999 22M 16.166 35L 19.166 35C 20.270569 35 21.166 34.104568 21.166 33L 21.166 31C 21.166 29.89543 22.061432 29 23.166 29L 25.166 29C 26.270569 29 27.166 28.10457 27.166 27L 27.166 25M 27.166 44C 28.270569 44 29.166 44.895432 29.166 46L 29.166 50M 44.166 45L 48.166 45M 57.200001 34C 58.200001 37 54.799999 39.799999 51.599998 40C 54 41.599998 54 45.599998 52.200001 48.200001C 50.599998 50.599998 48 52 45 52C 45 53.400002 45 55.200001 43.799999 56C 42.599998 57 40.799999 57.599998 39.599998 56.799999C 38.400002 55.799999 36.799999 54.799999 37.200001 53.200001C 35.400002 54.200001 32.599998 54.799999 31.200001 53.200001C 31.4 54.799999 29.799999 55.599998 28.799999 56.799999C 27.6 57.799999 25.799999 57 24.6 56C 23.200001 55 22.799999 53.400002 23.4 52C 20.4 52.400002 17.799999 50.599998 16 48.200001C 14.4 45.599998 14.6 42.200001 16.799999 40C 13.6 40.599998 11.8 37 11.2 34C 10.4 31 14 29.4 16.799999 28C 14.4 26.200001 14.6 22.4 16 19.799999C 17.6 17.200001 20.4 16.200001 23.4 16C 23.4 14.6 23.200001 12.8 24.6 12C 25.799999 11 27.6 10.2 28.799999 11.2C 29.799999 12.4 30.799999 13.2 31.200001 14.8C 33 13.8 35.799999 13.2 37.200001 14.8C 37 13.2 38.400002 12.2 39.599998 11.2C 40.799999 10.4 42.599998 11 43.799999 12C 45 12.8 45 14.6 45 16C 48 16.4 51.400002 17 52.200001 19.799999C 53.200001 22.799999 53.799999 26 51.599998 28C 54.799999 28.4 56.799999 30.799999 57.200001 34M 34.200001 43C 34.200001 43.599998 34 44.400002 34.200001 45M 34.200001 37C 34 37.599998 34.200001 38.400002 34.200001 39M 40.400002 37C 40.400002 37.599998 40.400002 38.400002 40.400002 39M 34.200001 25C 34.200001 25.6 34 26.4 34.200001 27M 34.200001 19C 34 19.6 34.200001 20.4 34.200001 21M 34.200001 49C 34.200001 49.599998 34 50.400002 34.200001 51M 24.200001 22C 23.799999 23.6 25.6 25.4 27.200001 25C 28.799999 24.6 30.200001 23.6 30.200001 22C 30.200001 20.4 28.799999 19.4 27.200001 19C 25.6 18.799999 24.6 20.4 24.200001 22M 39.200001 27C 39.599998 28.6 40.599998 29.4 42.200001 30C 43.799999 30.6 45.200001 28.6 45.200001 27C 45.200001 25.4 43.799999 24 42.200001 24C 40.599998 24 39 25.4 39.200001 27M 21.200001 44C 21.200001 45.599998 22.6 46.400002 24.200001 47C 25.799999 47.599998 26.6 45.599998 27.200001 44C 27.799999 42.400002 25.799999 41 24.200001 41C 22.6 41 20.6 42.400002 21.200001 44M 38.200001 45C 38.599998 46.599998 39.599998 48 41.200001 48C 42.799999 48.200001 44.599998 46.599998 44.200001 45C 43.799999 43.400002 42.799999 42.200001 41.200001 42C 39.599998 41.799999 38.799999 43.400002 38.200001 45M 43.200001 36C 43.200001 37.599998 44.599998 39.599998 46.200001 39C 47.799999 38.400002 49 37.599998 49.200001 36C 49.400002 34.400002 47.799999 32.799999 46.200001 33C 44.599998 33.200001 42.799999 34.400002 43.200001 36M 45.200001 27C 46.200001 27 47 26.200001 47.200001 25C 47.400002 24 47.599998 23 47.200001 22M 16.200001 35C 17.200001 35 18.200001 35.200001 19.200001 35C 20.200001 34.799999 21.6 34 21.200001 33C 21 32.400002 21.200001 31.6 21.200001 31C 21 30 22 29.200001 23.200001 29C 23.799999 28.799999 24.6 29.200001 25.200001 29C 26.200001 28.799999 27.200001 28.200001 27.200001 27C 27.200001 26.4 27.4 25.6 27.200001 25M 27.200001 44C 28.200001 44.400002 29.4 45 29.200001 46C 28.799999 47.200001 29.200001 48.599998 29.200001 50M 44.200001 45C 45.400002 45.200001 46.799999 45 48.200001 45"></path></g></g></g><g id="g-root-tx_plagioau_v5ha16122sp37-stroke" data-item-order="1000000000" transform="translate(225, 339)"></g><g id="g-root-tx_cdigoens_8z08i2122sob1-stroke" data-item-order="1000000000" transform="translate(393, 339)"></g><g id="g-root-tx_puntodep_4j6qdm122sp3a-stroke" data-item-order="1000000000" transform="translate(405, 375)"></g><g id="g-root-tx_faltader_hun8qy122snic-stroke" data-item-order="1000000000" transform="translate(225, 399)"></g></g></g></svg>