<?xml version="1.0" encoding="utf-8" standalone="yes"?>
<!DOCTYPE svg PUBLIC "-//W3C//DTD SVG 1.1//EN" "http://www.w3.org/Graphics/SVG/1.1/DTD/svg11.dtd">
<svg style="fill:none;stroke:none;fill-rule:evenodd;clip-rule:evenodd;stroke-linecap:round;stroke-linejoin:round;stroke-miterlimit:1.5;" version="1.1" xmlns="http://www.w3.org/2000/svg" xmlns:xlink="http://www.w3.org/1999/xlink" width="626" height="410" viewBox="0 0 626 410"><style class="text-font-style fontImports" data-font-family="Shantell Sans">@import url(https://fonts.googleapis.com/css2?family=Shantell+Sans:wght@300..800&amp;amp;display=block);</style><g id="items" style="isolation: isolate"><g id="blend" style="mix-blend-mode: normal"><g id="g-root-cp_1_g-1_mczfsu118lhqh-fill" data-item-order="999769608" transform="translate(29, 58.999969482421875)"><g id="cp_1_g-1_mczfsu118lhqh-fill-merged" stroke="none" fill="#dce9ff" fill-opacity="1"><g><path d="M87.5 197.9L104.6 193.1L104.3 172.4L82.1 178.7L87.5 197.9 M104.3 172.4L56.7 160.6L54.4 180.7L104.6 193.1L104.3 172.4 M54.4 180.7L125.9 179.5L129.3 159.4L56.7 160.6L54.4 180.7 M129.3 159.4L59.6 134L56 153.9L125.9 179.5L129.3 159.4 M56 153.9L122.2 154.6L128.2 134.7L59.6 134L56 153.9 M128.2 134.7L88.4 108.6L85.1 130.4L122.2 154.6L128.2 134.7 M85.1 130.4L98.1 126.6L92.4 107.4L88.4 108.6L85.1 130.4" fill-rule="nonzero"></path></g></g><g id="cp_1_g-1_mczfsu118lhqh-fill-merged" stroke="none" fill="#dce9ff" fill-opacity="1"><g><path d="M104.6 120.4L86.9 121L82.9 141.2L105.2 140.4L104.6 120.4 M82.9 141.2L116.3 156.3L120 136L86.9 121L82.9 141.2 M120 136L69.3 139.3L65.8 159.6L116.3 156.3L120 136 M65.8 159.6L116.9 181.3L121.5 161.5L69.3 139.3L65.8 159.6 M121.5 161.5L69.6 158.9L68.6 178.9L116.9 181.3L121.5 161.5" fill-rule="nonzero"></path></g></g><g id="cp_1_g-1_mczfsu118lhqh-fill-merged" stroke="none" fill="#dce9ff" fill-opacity="1"><g><path d="M51.2 125.8L57 131.5L71.4 117.6L65.2 111.6L51.2 125.8 M71.4 117.6L51.4 95.9L45.1 118.5L57 131.5L71.4 117.6 M81.7 87.4L36.3 74.2L35.7 94.9L81.7 108.2L51.4 95.9L45.1 118.5L81.7 108.2 M35.7 94.9L70.5 86.9L72 66L36.3 74.2L35.7 94.9 M72 66L27.6 48.7L25.6 69.4L70.5 86.9L72 66 M25.6 69.4L64.3 62.1L63.5 41.9L27.6 48.7L25.6 69.4 M63.5 41.9L20 36.8L22.3 57.2L64.3 62.1L63.5 41.9 M22.3 57.2L51.6 46.9L56.9 23.8L20 36.8L22.3 57.2 M56.9 23.8L51.2 18L51.5 17.4L33.7 8.3L34.4 6.9L38.5 33.7L51.6 46.9L56.9 23.8" fill-rule="nonzero"></path></g></g><g id="cp_1_g-1_mczfsu118lhqh-fill-merged" stroke="none" fill="#dce9ff" fill-opacity="1"><g><path d="M153.6 7.9L138.8 11.8L134.1 33.7L158.7 27.3L153.6 7.9 M134.1 33.7L160.8 55.2L170.1 37L138.8 11.8L134.1 33.7 M170.1 37L136.8 27.9L125.3 45.5L160.8 55.2L170.1 37 M125.3 45.5L147.6 73.1L158.9 55.3L136.8 27.9L125.3 45.5 M158.9 55.3L126 47.1L115.4 65.1L147.6 73.1L158.9 55.3 M115.4 65.1L138.6 90.4L149.1 72.3L126 47.1L115.4 65.1 M149.1 72.3L119.2 65.4L107.5 83.3L138.6 90.4L149.1 72.3 M107.5 83.3L132.3 116.7L144.6 99.8L119.2 65.4L107.5 83.3 M144.6 99.8L109.1 87.8L98.3 105.3L132.3 116.7L144.6 99.8 M98.3 105.3L125.6 132.5L137.3 115.9L109.1 87.8L98.3 105.3 M137.3 115.9L121.5 108.3L112.8 126.2L125.6 132.5L137.3 115.9" fill-rule="nonzero"></path></g></g><g id="cp_1_g-1_mczfsu118lhqh-fill-merged" stroke="none" fill="#dce9ff" fill-opacity="1"><g><path d="M141.2 24.2L137.5 9.6L116.6 8.6L121.8 29.1L141.2 24.2 M116.6 8.6L103.7 44.1L123.5 48.1L137.5 9.6L116.6 8.6 M123.5 48.1L125 15.8L105.3 8L103.7 44.1L123.5 48.1 M105.3 8L78.8 39L98 47.3L125 15.8L105.3 8 M98 47.3L101.5 14.7L82.3 6.7L78.8 39L98 47.3 M82.3 6.7L55.5 39.7L75.4 46.9L101.5 14.7L82.3 6.7 M75.4 46.9L75.7 21.5L55.8 4.5L55.5 39.7L75.4 46.9 M55.8 4.5L40.4 7L51.1 25.5L75.7 21.5L55.8 4.5 M51.1 25.5L62.3 12L46.9 -0.8L40.4 7L51.1 25.5" fill-rule="nonzero"></path></g></g></g><g id="g-root-cp_2_g-2_925eim118lg5m-fill" data-item-order="999769612" transform="translate(220.6710205078125, 58.999969482421875)"><g id="cp_2_g-2_925eim118lg5m-fill-merged" stroke="none" fill="#d1f4ff" fill-opacity="1"><g><path d="M81.4 196.1L91.7 199.9L101.1 182.1L88.5 177.3L81.4 196.1 M101.1 182.1L62.2 154.7L55.7 174.6L91.7 199.9L101.1 182.1 M55.7 174.6L124.1 175.6L126.7 155.6L62.2 154.7L55.7 174.6 M126.7 155.6L60.6 139.2L58.7 159.4L124.1 175.6L126.7 155.6 M58.7 159.4L126.5 155.5L131.9 135.1L60.6 139.2L58.7 159.4 M131.9 135.1L90.4 108.2L86.8 129.7L126.5 155.5L131.9 135.1 M86.8 129.7L98.3 126.9L93.5 107.5L90.4 108.2L86.8 129.7" fill-rule="nonzero"></path></g></g><g id="cp_2_g-2_925eim118lg5m-fill-merged" stroke="none" fill="#d1f4ff" fill-opacity="1"><g><path d="M97.5 114.7L88.9 116L84.7 136.9L100.6 134.4L97.5 114.7 M84.7 136.9L122.2 160.2L128.3 140.5L88.9 116L84.7 136.9 M128.3 140.5L64.4 137.7L59.7 157.5L122.2 160.2L128.3 140.5 M59.7 157.5L114.9 182.3L119.4 162.4L64.4 137.7L59.7 157.5 M119.4 162.4L72.2 161.3L71.7 181.3L114.9 182.3L119.4 162.4" fill-rule="nonzero"></path></g></g><g id="cp_2_g-2_925eim118lg5m-fill-merged" stroke="none" fill="#d1f4ff" fill-opacity="1"><g><path d="M60.4 135.5L65 132.9L67.3 108.7L50.5 118.2L60.4 135.5 M67.3 108.7L49 93.2L42.2 113.7L65 132.9L67.3 108.7 M42.2 113.7L82.1 111.4L85.2 91.2L49 93.2L42.2 113.7 M85.2 91.2L40.8 74.7L39.6 95.5L82.1 111.4L85.2 91.2 M39.6 95.5L75.1 87L76.1 66.1L40.8 74.7L39.6 95.5 M76.1 66.1L26.4 48.9L24.7 69.4L75.1 87L76.1 66.1 M24.7 69.4L57.9 63.9L59 43.5L26.4 48.9L24.7 69.4 M59 43.5L19.3 32.5L17 52.6L57.9 63.9L59 43.5 M17 52.6L53.7 51L60.7 30.6L19.3 32.5L17 52.6 M60.7 30.6L33.3 7.2L27.4 28.5L53.7 51L60.7 30.6 M27.4 28.5L48.7 25L45.5 5.3L33.3 7.2L27.4 28.5" fill-rule="nonzero"></path></g></g><g id="cp_2_g-2_925eim118lg5m-fill-merged" stroke="none" fill="#d1f4ff" fill-opacity="1"><g><path d="M154.3 14.7L147.8 9.1L133.4 23.2L141.3 29.9L154.3 14.7 M133.4 23.2L157.8 53.1L167.8 33.8L147.8 9.1L133.4 23.2 M167.8 33.8L137 31.6L129 51.1L157.8 53.1L167.8 33.8 M129 51.1L152.7 71.5L162.2 53.3L137 31.6L129 51.1 M162.2 53.3L131.3 45.1L118.8 62.5L152.7 71.5L162.2 53.3 M118.8 62.5L136.9 89.7L148.7 71.3L131.3 45.1L118.8 62.5 M148.7 71.3L112.3 65.6L103.4 84.5L136.9 89.7L148.7 71.3 M103.4 84.5L131.4 109.2L139.5 89.7L112.3 65.6L103.4 84.5 M139.5 89.7L111.7 88L101.7 107.4L131.4 109.2L139.5 89.7 M101.7 107.4L118.9 128.5L131.7 112.6L111.7 88L101.7 107.4 M131.7 112.6L125.2 109.3L116.1 127.1L118.9 128.5L131.7 112.6" fill-rule="nonzero"></path></g></g><g id="cp_2_g-2_925eim118lg5m-fill-merged" stroke="none" fill="#d1f4ff" fill-opacity="1"><g><path d="M138.4 25.6L143.1 18.9L127.4 6.4L122 14L138.4 25.6 M127.4 6.4L98.1 39.4L117.2 48L143.1 18.9L127.4 6.4 M117.2 48L121 17.2L101.6 11L98.1 39.4L117.2 48 M101.6 11L83.7 44.4L103.9 49.1L121 17.2L101.6 11 M103.9 49.1L102.7 18.5L82.4 10.5L83.7 44.4L103.9 49.1 M82.4 10.5L55.1 37.8L74.8 46.3L102.7 18.5L82.4 10.5 M74.8 46.3L75.7 13.1L56.1 1.4L55.1 37.8L74.8 46.3 M56.1 1.4L38.9 11.4L57.1 24L75.7 13.1L56.1 1.4 M57.1 24L59.1 12.1L39.4 8.7L38.9 11.4L57.1 24" fill-rule="nonzero"></path></g></g></g><g id="g-root-cp_3_g-3_4mbwe6118lgxv-fill" data-item-order="999769616" transform="translate(412.343017578125, 58.999969482421875)"><g id="cp_3_g-3_4mbwe6118lgxv-fill-merged" stroke="none" fill="#c8ffe5" fill-opacity="1"><g><path d="M82.5 196.4L94.5 198.5L101 179.3L85.8 176.7L82.5 196.4 M101 179.3L60.4 158L56.3 178.4L94.5 198.5L101 179.3 M56.3 178.4L130.7 172.6L132.3 152.4L60.4 158L56.3 178.4 M132.3 152.4L57.9 133.9L55.4 153.9L130.7 172.6L132.3 152.4 M55.4 153.9L125.1 154.2L128.6 134.2L57.9 133.9L55.4 153.9 M128.6 134.2L76 115.4L73.7 135.8L125.1 154.2L128.6 134.2 M73.7 135.8L111.3 131.2L108.8 111.3L76 115.4L73.7 135.8" fill-rule="nonzero"></path></g></g><g id="cp_3_g-3_4mbwe6118lgxv-fill-merged" stroke="none" fill="#c8ffe5" fill-opacity="1"><g><path d="M87.6 115.3L86.7 115.9L86.6 139.8L98.4 132.2L87.6 115.3 M86.6 139.8L120.9 162.2L126.4 141.9L86.7 115.9L86.6 139.8 M126.4 141.9L68.2 145L65.6 165.1L120.9 162.2L126.4 141.9 M65.6 165.1L112.8 180.5L115.9 160.5L68.2 145L65.6 165.1 M115.9 160.5L69.5 160.9L69.7 180.9L112.8 180.5L115.9 160.5" fill-rule="nonzero"></path></g></g><g id="cp_3_g-3_4mbwe6118lgxv-fill-merged" stroke="none" fill="#c8ffe5" fill-opacity="1"><g><path d="M55.2 134.6L59.8 135.3L72.1 117L58.4 114.8L55.2 134.6 M72.1 117L55.5 89.5L45.4 111.4L59.8 135.3L72.1 117 M45.4 111.4L78.9 106L80.1 85.5L55.5 89.5L45.4 111.4 M80.1 85.5L38.3 73.9L37 94.3L78.9 106L80.1 85.5 M37 94.3L71.3 89L73.3 68.4L38.3 73.9L37 94.3 M73.3 68.4L30.8 52.7L28.9 73.3L71.3 89L73.3 68.4 M28.9 73.3L60.1 68.2L61.2 47.7L30.8 52.7L28.9 73.3 M61.2 47.7L22.4 37.2L21.4 57.6L60.1 68.2L61.2 47.7 M21.4 57.6L46 53.2L55.2 31.3L22.4 37.2L21.4 57.6 M55.2 31.3L39 7.5L29 28.3L46 53.2L55.2 31.3 M29 28.3L41.8 27.3L40.3 7.4L39 7.5L29 28.3" fill-rule="nonzero"></path></g></g><g id="cp_3_g-3_4mbwe6118lgxv-fill-merged" stroke="none" fill="#c8ffe5" fill-opacity="1"><g><path d="M147.6 10.3L143.3 10.9L137.6 32.1L150.8 30L147.6 10.3 M137.6 32.1L163.6 53.4L171.8 34.3L143.3 10.9L137.6 32.1 M171.8 34.3L133.4 29.7L124.4 48.7L163.6 53.4L171.8 34.3 M124.4 48.7L150.2 73.6L159.6 54.8L133.4 29.7L124.4 48.7 M159.6 54.8L125.8 49.4L117.6 68.3L150.2 73.6L159.6 54.8 M117.6 68.3L143.1 88.2L151.1 69.1L125.8 49.4L117.6 68.3 M151.1 69.1L114.8 64.2L105.3 83L143.1 88.2L151.1 69.1 M105.3 83L134.4 113L143.9 94.1L114.8 64.2L105.3 83 M143.9 94.1L104 88.9L96.2 108L134.4 113L143.9 94.1 M96.2 108L125.9 130.4L132.6 110.5L104 88.9L96.2 108 M132.6 110.5L114.6 110.3L114.4 130.3L125.9 130.4L132.6 110.5" fill-rule="nonzero"></path></g></g><g id="cp_3_g-3_4mbwe6118lgxv-fill-merged" stroke="none" fill="#c8ffe5" fill-opacity="1"><g><path d="M139.5 24.5L142.2 16.8L124 8.3L120.6 17.9L139.5 24.5 M124 8.3L101 46.9L121.4 51.7L142.2 16.8L124 8.3 M121.4 51.7L118.4 13L98 8.4L101 46.9L121.4 51.7 M98 8.4L78.7 41.7L98.2 47.9L118.4 13L98 8.4 M98.2 47.9L101.2 15L81.7 8.6L78.7 41.7L98.2 47.9 M81.7 8.6L61.5 42.5L81.7 47.6L101.2 15L81.7 8.6 M81.7 47.6L80.2 13.4L59.7 2.9L61.5 42.5L81.7 47.6 M59.7 2.9L41.1 15L58.5 27.5L80.2 13.4L59.7 2.9 M58.5 27.5L63.8 6.9L44.4 2L41.1 15L58.5 27.5" fill-rule="nonzero"></path></g></g></g><g id="g-root-tx_1_1hgywu6118lfyl-fill" data-item-order="1000000000" transform="translate(99, 184.99996948242188)"><g id="tx_1_1hgywu6118lfyl-fill-merged" stroke="none" fill="#484848" fill-opacity="1"><g><text style="font: bold 25px &quot;Shantell Sans&quot;, cursive; white-space: pre;" font-weight="bold" font-size="25px" font-family="'Shantell Sans', cursive"><tspan x="16.31" y="44.2" dominant-baseline="ideographic">1</tspan></text></g></g></g><g id="g-root-tx_2_zpowce118libr-fill" data-item-order="1000000000" transform="translate(291, 184.99996948242188)"><g id="tx_2_zpowce118libr-fill-merged" stroke="none" fill="#484848" fill-opacity="1"><g><text style="font: bold 25px &quot;Shantell Sans&quot;, cursive; white-space: pre;" font-weight="bold" font-size="25px" font-family="'Shantell Sans', cursive"><tspan x="13.25" y="44.2" dominant-baseline="ideographic">2</tspan></text></g></g></g><g id="g-root-tx_3_145iegu118lhji-fill" data-item-order="1000000000" transform="translate(482, 184.99996948242188)"><g id="tx_3_145iegu118lhji-fill-merged" stroke="none" fill="#484848" fill-opacity="1"><g><text style="font: bold 25px &quot;Shantell Sans&quot;, cursive; white-space: pre;" font-weight="bold" font-size="25px" font-family="'Shantell Sans', cursive"><tspan x="13.25" y="44.2" dominant-baseline="ideographic">3</tspan></text></g></g></g><g id="g-root-tx_demostra_zpowce118libs-fill" data-item-order="1000000000" transform="translate(21, 254.99996948242188)"><g id="tx_demostra_zpowce118libs-fill-merged" stroke="none" fill="#484848" fill-opacity="1"><g><text style="font: bold 20px &quot;Shantell Sans&quot;, cursive; white-space: pre;" font-weight="bold" font-size="20px" font-family="'Shantell Sans', cursive"><tspan x="16.96" y="35.6" dominant-baseline="ideographic">Demostraciones</tspan></text></g></g></g><g id="g-root-tx_problema_hz1cxq118lhj6-fill" data-item-order="1000000000" transform="translate(243, 254.99996948242188)"><g id="tx_problema_hz1cxq118lhj6-fill-merged" stroke="none" fill="#484848" fill-opacity="1"><g><text style="font: bold 20px &quot;Shantell Sans&quot;, cursive; white-space: pre;" font-weight="bold" font-size="20px" font-family="'Shantell Sans', cursive"><tspan x="15.36" y="35.6" dominant-baseline="ideographic">Problemas</tspan></text></g></g></g><g id="g-root-tx_conjetur_1utoddq118lgjw-fill" data-item-order="1000000000" transform="translate(435, 254.99996948242188)"><g id="tx_conjetur_1utoddq118lgjw-fill-merged" stroke="none" fill="#484848" fill-opacity="1"><g><text style="font: bold 20px &quot;Shantell Sans&quot;, cursive; white-space: pre;" font-weight="bold" font-size="20px" font-family="'Shantell Sans', cursive"><tspan x="14.11" y="35.6" dominant-baseline="ideographic">Conjeturas</tspan></text></g></g></g><g id="g-root-tx_demostra_meuv26118lgqx-fill" data-item-order="1000000000" transform="translate(39, 290.9999694824219)"><g id="tx_demostra_meuv26118lgqx-fill-merged" stroke="none" fill="#484848" fill-opacity="1"><g><text style="font: 15px &quot;Shantell Sans&quot;, cursive; white-space: pre;" font-size="15px" font-family="'Shantell Sans', cursive"><tspan x="22.6" y="31.4" dominant-baseline="ideographic">Demostraciones </tspan><tspan x="33.03" y="49.4" dominant-baseline="ideographic">matemáticas </tspan><tspan x="35.89" y="67.4" dominant-baseline="ideographic">clásicas que </tspan><tspan x="14.55" y="85.4" dominant-baseline="ideographic">revelan la belleza </tspan><tspan x="45.29" y="103.4" dominant-baseline="ideographic">y solidez.</tspan></text></g></g></g><g id="g-root-tx_desafosq_4o7bni118lfyb-fill" data-item-order="1000000000" transform="translate(231, 290.9999694824219)"><g id="tx_desafosq_4o7bni118lfyb-fill-merged" stroke="none" fill="#484848" fill-opacity="1"><g><text style="font: 15px &quot;Shantell Sans&quot;, cursive; white-space: pre;" font-size="15px" font-family="'Shantell Sans', cursive"><tspan x="33.99" y="31.4" dominant-baseline="ideographic">Desafíos que </tspan><tspan x="50.84" y="49.4" dominant-baseline="ideographic">inspiran </tspan><tspan x="31.77" y="67.4" dominant-baseline="ideographic">creatividad y </tspan><tspan x="15.52" y="85.4" dominant-baseline="ideographic">nuevas preguntas </tspan><tspan x="19.98" y="103.4" dominant-baseline="ideographic">en matemáticas.</tspan></text></g></g></g><g id="g-root-tx_intuicio_1qduv9a118lhc5-fill" data-item-order="1000000000" transform="translate(429, 290.9999694824219)"><g id="tx_intuicio_1qduv9a118lhc5-fill-merged" stroke="none" fill="#484848" fill-opacity="1"><g><text style="font: 15px &quot;Shantell Sans&quot;, cursive; white-space: pre;" font-size="15px" font-family="'Shantell Sans', cursive"><tspan x="18.66" y="31.4" dominant-baseline="ideographic">Intuiciones que </tspan><tspan x="44.99" y="49.4" dominant-baseline="ideographic">guían la </tspan><tspan x="33.13" y="67.4" dominant-baseline="ideographic">exploración </tspan><tspan x="15.52" y="85.4" dominant-baseline="ideographic">matemática y la </tspan><tspan x="13.33" y="103.4" dominant-baseline="ideographic">experimentación.</tspan></text></g></g></g><g id="g-root-cp_1_g-1_mczfsu118lhqh-stroke" data-item-order="999769608" transform="translate(29, 58.999969482421875)"><g id="cp_1_g-1_mczfsu118lhqh-stroke" fill="none" stroke-linecap="round" stroke-linejoin="round" stroke-miterlimit="4" stroke="#484848" stroke-width="4" stroke-opacity="1"><g><path d="M 92.5 194C 114.3154 194 132 176.0914 132 154C 132 131.9086 114.3154 114 92.5 114C 70.6846 114 53 131.9086 53 154C 53 176.0914 70.6846 194 92.5 194ZM 92.5 194C 114.3 195.3 132.5 176.1 132 154C 131.5 131.9 114.3 114.9 92.5 114C 70.7 113.1 51.4 132 53 154C 54.6 176 70.8 192.2 92.5 194"></path></g></g><g id="cp_1_g-1_mczfsu118lhqh-stroke" fill="none" stroke-linecap="round" stroke-linejoin="round" stroke-miterlimit="4" stroke="#484848" stroke-width="4" stroke-opacity="1"><g><path d="M 60 154C 60 135.7895 74.536 121 92.5 121C 110.464 121 125 135.7895 125 154C 125 172.2105 110.464 187 92.5 187C 74.536 187 60 172.2105 60 154ZM 60 154C 61.3 135.8 74.5 121.5 92.5 121C 110.5 120.5 125.9 135.8 125 154C 124.1 172.2 110.4 185.4 92.5 187C 74.6 188.6 58.5 172.1 60 154"></path></g></g><g id="cp_1_g-1_mczfsu118lhqh-stroke" fill="none" stroke-linecap="round" stroke-linejoin="round" stroke-miterlimit="4" stroke="#484848" stroke-width="4" stroke-opacity="1"><g><path d="M 58.7695 133.1737C 65.4189 122.1535 77.187 114.6456 90.7261 114.0396L 43.7183 10L 10 25.2346L 58.7695 133.1737ZM 58.8 133.2C 66.5 122.9 77.2 115.1 90.7 114C 81.4 97.5 74.3 79.8 67.3 62.1C 60.2 44.4 50.1 28 43.7 10C 32.5 15 21.8 21.5 10 25.2C 18.8 43.8 27.3 62.6 35.4 81.6C 42.9 98.9 49.7 116.6 58.8 133.2"></path></g></g><g id="cp_1_g-1_mczfsu118lhqh-stroke" fill="none" stroke-linecap="round" stroke-linejoin="round" stroke-miterlimit="4" stroke="#484848" stroke-width="4" stroke-opacity="1"><g><path d="M 93.937988 114.026C 107.485488 114.5169 119.294788 121.9167 126.033788 132.8512L 174.657588 25.2346L 140.939488 10L 93.937988 114.026ZM 93.9 114C 107.4 115.8 118.9 122.2 126 132.9C 132.6 114.3 141.4 96.7 150.3 79.2C 159.2 61.6 165.1 42.5 174.7 25.2C 163.4 20.1 151.5 16.3 140.9 10C 133.1 28.2 124.9 46.3 116.4 64.3C 108.6 80.7 100 96.9 93.9 114"></path></g></g><g id="cp_1_g-1_mczfsu118lhqh-stroke" fill="none" stroke-linecap="round" stroke-linejoin="round" stroke-miterlimit="4" stroke="#484848" stroke-width="4" stroke-opacity="1"><g><path d="M 44 10L 44 10.6236L 60.4355 47L 124.2222 47L 140.9395 10L 141 10.0273L 141 10L 140.9395 10L 44 10ZM 44 10C 44 10.2 43.9 10.4 44 10.6C 50.9 22 55.8 34.5 60.4 47C 81.7 48.4 103 45.3 124.2 47C 130.1 34.8 135.3 22.3 140.9 10C 125.8 11.5 110.5 9.6 95.3 10C 78.2 10.4 61 8.2 44 10"></path></g></g></g><g id="g-root-cp_2_g-2_925eim118lg5m-stroke" data-item-order="999769612" transform="translate(220.6710205078125, 58.999969482421875)"><g id="cp_2_g-2_925eim118lg5m-stroke" fill="none" stroke-linecap="round" stroke-linejoin="round" stroke-miterlimit="4" stroke="#484848" stroke-width="4" stroke-opacity="1"><g><path d="M 92.5 194C 114.3154 194 132 176.0914 132 154C 132 131.9086 114.3154 114 92.5 114C 70.6846 114 53 131.9086 53 154C 53 176.0914 70.6846 194 92.5 194ZM 92.5 194C 114.3 194.8 131.9 176.1 132 154C 132.1 131.9 114.3 113.6 92.5 114C 70.7 114.4 54.5 132 53 154C 51.5 176 70.7 194.5 92.5 194"></path></g></g><g id="cp_2_g-2_925eim118lg5m-stroke" fill="none" stroke-linecap="round" stroke-linejoin="round" stroke-miterlimit="4" stroke="#484848" stroke-width="4" stroke-opacity="1"><g><path d="M 60 154C 60 135.7895 74.536 121 92.5 121C 110.464 121 125 135.7895 125 154C 125 172.2105 110.464 187 92.5 187C 74.536 187 60 172.2105 60 154ZM 60 154C 60.8 135.8 74.5 120.9 92.5 121C 110.5 121.1 124.6 135.8 125 154C 125.4 172.2 110.4 188.5 92.5 187C 74.6 185.5 60.5 172.2 60 154"></path></g></g><g id="cp_2_g-2_925eim118lg5m-stroke" fill="none" stroke-linecap="round" stroke-linejoin="round" stroke-miterlimit="4" stroke="#484848" stroke-width="4" stroke-opacity="1"><g><path d="M 58.7695 133.1737C 65.4189 122.1535 77.187 114.6456 90.7261 114.0396L 43.7183 10L 10 25.2346L 58.7695 133.1737ZM 58.8 133.2C 66.1 122.6 77.2 114.6 90.7 114C 84.8 97.2 76.4 81.3 68.6 65.1C 59.9 47 52.5 28.2 43.7 10C 31.8 13.3 21.2 20.1 10 25.2C 16.1 36.6 20.7 48.7 25.9 60.4C 31.2 72.4 36.1 84.5 42 96.1C 48.2 108.2 53.2 120.8 58.8 133.2"></path></g></g><g id="cp_2_g-2_925eim118lg5m-stroke" fill="none" stroke-linecap="round" stroke-linejoin="round" stroke-miterlimit="4" stroke="#484848" stroke-width="4" stroke-opacity="1"><g><path d="M 93.937988 114.026C 107.485488 114.5169 119.294788 121.9167 126.033788 132.8512L 174.657588 25.2346L 140.939488 10L 93.937988 114.026ZM 93.9 114C 107.4 115.3 119.4 121.9 126 132.9C 135 116.7 141.7 99.3 148.9 82.3C 157 63.1 166.5 44.4 174.7 25.2C 164.3 18.5 152.2 15 140.9 10C 136.6 21.6 130.8 32.6 125.6 43.9C 120.4 55.3 114.7 66.6 110.1 78.3C 105.3 90.4 99.3 102.1 93.9 114"></path></g></g><g id="cp_2_g-2_925eim118lg5m-stroke" fill="none" stroke-linecap="round" stroke-linejoin="round" stroke-miterlimit="4" stroke="#484848" stroke-width="4" stroke-opacity="1"><g><path d="M 44 10L 44 10.6236L 60.4355 47L 124.2222 47L 140.9395 10L 141 10.0273L 141 10L 140.9395 10L 44 10ZM 44 10C 44 10.2 44 10.4 44 10.6C 48.1 23.3 54.6 35.1 60.4 47C 81.7 47 103 47.5 124.2 47C 129.9 34.7 133.7 21.4 140.9 10C 108.7 11.5 76.3 9.1 44 10"></path></g></g></g><g id="g-root-cp_3_g-3_4mbwe6118lgxv-stroke" data-item-order="999769616" transform="translate(412.343017578125, 58.999969482421875)"><g id="cp_3_g-3_4mbwe6118lgxv-stroke" fill="none" stroke-linecap="round" stroke-linejoin="round" stroke-miterlimit="4" stroke="#484848" stroke-width="4" stroke-opacity="1"><g><path d="M 92.5 194C 114.3154 194 132 176.0914 132 154C 132 131.9086 114.3154 114 92.5 114C 70.6846 114 53 131.9086 53 154C 53 176.0914 70.6846 194 92.5 194ZM 92.5 194C 104.2 192.1 114.8 188.6 122.2 180.3C 128.4 173.4 132.4 164.1 132 154C 131.2 131.9 114.3 114.6 92.5 114C 82.5 113.7 74.5 119.4 66.4 124C 56.8 129.5 52.4 142.1 53 154C 54.2 176.1 70.7 193.8 92.5 194"></path></g></g><g id="cp_3_g-3_4mbwe6118lgxv-stroke" fill="none" stroke-linecap="round" stroke-linejoin="round" stroke-miterlimit="4" stroke="#484848" stroke-width="4" stroke-opacity="1"><g><path d="M 60 154C 60 135.7895 74.536 121 92.5 121C 110.464 121 125 135.7895 125 154C 125 172.2105 110.464 187 92.5 187C 74.536 187 60 172.2105 60 154ZM 60 154C 58.1 135.9 74.5 120.7 92.5 121C 110.5 121.3 124.5 135.8 125 154C 125.5 172.2 110.5 187.6 92.5 187C 74.5 186.5 58 172.1 60 154"></path></g></g><g id="cp_3_g-3_4mbwe6118lgxv-stroke" fill="none" stroke-linecap="round" stroke-linejoin="round" stroke-miterlimit="4" stroke="#484848" stroke-width="4" stroke-opacity="1"><g><path d="M 58.7695 133.1737C 65.4189 122.1535 77.187 114.6456 90.7261 114.0396L 43.7183 10L 10 25.2346L 58.7695 133.1737ZM 58.8 133.2C 63.7 121.3 77.2 114.4 90.7 114C 75.6 79.1 59.8 44.5 43.7 10C 32.8 15.7 21.9 22 10 25.2C 14.7 36.4 20.1 47.2 24.9 58.3C 30.3 70.5 36.6 82.3 41.4 94.8C 46.5 107.9 51.9 120.9 58.8 133.2"></path></g></g><g id="cp_3_g-3_4mbwe6118lgxv-stroke" fill="none" stroke-linecap="round" stroke-linejoin="round" stroke-miterlimit="4" stroke="#484848" stroke-width="4" stroke-opacity="1"><g><path d="M 93.937988 114.026C 107.485488 114.5169 119.294788 121.9167 126.033788 132.8512L 174.657588 25.2346L 140.939488 10L 93.937988 114.026ZM 93.9 114C 107.4 112.6 119.5 121.8 126 132.9C 142.7 97.2 158.9 61.3 174.7 25.2C 163.2 20.7 151.2 16.8 140.9 10C 135.9 20.5 131.5 31.3 126.5 41.9C 121.1 53.5 116.6 65.6 110.7 77C 104.4 89 98.4 101.3 93.9 114"></path></g></g><g id="cp_3_g-3_4mbwe6118lgxv-stroke" fill="none" stroke-linecap="round" stroke-linejoin="round" stroke-miterlimit="4" stroke="#484848" stroke-width="4" stroke-opacity="1"><g><path d="M 44 10L 44 10.6236L 60.4355 47L 124.2222 47L 140.9395 10L 141 10.0273L 141 10L 140.9395 10L 44 10ZM 44 10C 44 10.2 44 10.4 44 10.6C 49 23 54.5 35.1 60.4 47C 81.7 46.4 103.1 45 124.2 47C 130.1 34.8 135.2 22.3 140.9 10C 108.7 11.2 76.3 10.8 44 10"></path></g></g></g><g id="g-root-tx_1_1hgywu6118lfyl-stroke" data-item-order="1000000000" transform="translate(99, 184.99996948242188)"></g><g id="g-root-tx_2_zpowce118libr-stroke" data-item-order="1000000000" transform="translate(291, 184.99996948242188)"></g><g id="g-root-tx_3_145iegu118lhji-stroke" data-item-order="1000000000" transform="translate(482, 184.99996948242188)"></g><g id="g-root-tx_demostra_zpowce118libs-stroke" data-item-order="1000000000" transform="translate(21, 254.99996948242188)"></g><g id="g-root-tx_problema_hz1cxq118lhj6-stroke" data-item-order="1000000000" transform="translate(243, 254.99996948242188)"></g><g id="g-root-tx_conjetur_1utoddq118lgjw-stroke" data-item-order="1000000000" transform="translate(435, 254.99996948242188)"></g><g id="g-root-tx_demostra_meuv26118lgqx-stroke" data-item-order="1000000000" transform="translate(39, 290.9999694824219)"></g><g id="g-root-tx_desafosq_4o7bni118lfyb-stroke" data-item-order="1000000000" transform="translate(231, 290.9999694824219)"></g><g id="g-root-tx_intuicio_1qduv9a118lhc5-stroke" data-item-order="1000000000" transform="translate(429, 290.9999694824219)"></g></g></g></svg>