<?xml version="1.0" standalone="no"?>
<!DOCTYPE svg PUBLIC "-//W3C//DTD SVG 20010904//EN"
 "http://www.w3.org/TR/2001/REC-SVG-20010904/DTD/svg10.dtd">
<svg version="1.0" xmlns="http://www.w3.org/2000/svg"
 width="1274.000000pt" height="1280.000000pt" viewBox="0 0 1274.000000 1280.000000"
 preserveAspectRatio="xMidYMid meet">
<metadata>
Created by potrace 1.15, written by Peter Selinger 2001-2017
</metadata>
<g transform="translate(0.000000,1280.000000) scale(0.100000,-0.100000)"
fill="#000000" stroke="none">
<path d="M6280 11969 l0 -297 -22 -6 c-13 -3 -53 -6 -89 -6 -90 0 -367 -27
-529 -51 -573 -86 -1157 -280 -1681 -560 -1376 -734 -2370 -2066 -2674 -3584
-37 -188 -69 -394 -63 -418 2 -11 23 0 77 44 40 32 77 57 81 54 4 -2 18 8 31
23 l24 27 -30 -25 -30 -25 30 33 c16 18 35 30 41 28 7 -3 22 7 35 22 l24 27
-26 -20 c-14 -11 -10 -5 8 13 19 18 37 30 42 28 5 -3 17 4 27 17 l19 22 -25
-19 c-14 -11 -8 -2 13 18 21 20 41 34 46 32 5 -3 17 4 27 17 19 22 19 22 -2 7
-11 -8 -7 -2 8 13 16 15 33 25 37 23 5 -3 17 4 27 17 l19 22 -25 -20 c-21 -16
-20 -14 5 13 16 18 35 30 41 28 7 -3 22 7 35 22 l24 27 -26 -20 c-14 -11 -10
-5 8 13 19 18 37 31 42 28 4 -3 19 7 32 22 l24 27 -26 -20 c-14 -11 -10 -5 8
13 19 18 37 31 42 28 4 -3 19 7 32 22 l24 27 -25 -20 c-21 -16 -21 -15 3 8 15
15 32 25 36 23 5 -3 17 4 27 17 l19 22 -25 -20 c-21 -16 -20 -14 5 13 16 18
35 30 43 27 7 -2 11 -1 8 4 -3 4 4 17 17 27 21 19 21 19 7 -1 -14 -18 -14 -19
2 -6 10 7 16 17 13 21 -7 11 22 33 33 26 5 -3 20 7 33 22 l24 27 -26 -20 c-14
-11 -10 -5 8 13 19 18 37 31 42 28 4 -3 19 7 32 22 l24 27 -30 -25 -30 -25 30
33 c16 18 35 30 41 28 7 -3 22 7 35 22 l24 27 -30 -25 -30 -25 30 33 c16 18
35 30 43 27 7 -2 11 -1 8 4 -7 11 72 84 83 77 4 -3 19 7 32 22 l24 27 -30 -25
-30 -25 30 33 c16 18 35 30 41 28 7 -3 20 5 31 17 18 22 18 22 -3 7 -11 -8 -3
2 19 22 29 28 43 35 56 29 14 -8 447 -432 1077 -1054 146 -144 183 -176 187
-161 3 11 22 75 41 144 61 216 203 549 227 534 7 -4 9 -3 6 4 -10 15 3 43 16
35 6 -3 7 -1 3 5 -9 15 18 55 29 44 5 -4 5 -2 1 5 -7 14 32 85 44 78 4 -3 7 3
6 13 0 9 4 16 10 15 7 -1 11 5 10 15 0 9 4 16 10 15 7 -1 11 5 10 15 0 9 6 17
14 17 8 0 15 9 15 20 0 11 6 19 13 17 8 -1 11 2 8 7 -3 5 2 17 12 28 9 10 13
12 7 3 -9 -13 -8 -13 7 -2 9 8 15 19 12 26 -3 7 6 21 18 32 23 19 23 19 8 -1
-14 -18 -14 -19 2 -7 9 8 15 19 12 26 -2 6 10 25 28 41 l33 30 -25 -30 -25
-30 27 24 c15 13 25 28 22 35 -6 14 221 240 233 233 6 -4 21 6 34 21 l24 27
-30 -25 -30 -24 31 32 c17 19 39 35 50 36 10 2 19 9 19 17 0 8 9 14 20 14 11
0 20 7 20 15 0 8 9 15 20 15 11 0 20 7 20 15 0 8 8 15 17 15 9 0 20 4 25 9 5
5 2 6 -7 2 -8 -4 -6 -1 4 8 10 8 23 13 28 10 5 -3 7 0 6 8 -2 7 5 12 14 12 10
-1 15 2 12 7 -5 8 9 13 28 10 5 0 7 5 5 12 -1 6 6 11 15 11 10 -1 15 3 11 9
-4 6 0 8 10 4 10 -4 16 -2 14 6 -1 7 6 11 15 11 10 -1 16 1 13 5 -6 11 54 43
67 35 7 -5 8 -3 3 6 -6 10 -4 12 9 7 9 -4 15 -3 12 2 -8 13 160 94 175 85 7
-4 9 -3 5 4 -11 17 246 111 441 161 89 23 291 56 401 66 l72 7 0 -308 0 -309
103 103 c57 56 105 100 108 98 3 -3 95 86 204 197 l200 202 -205 -200 -205
-200 204 207 c113 114 208 205 213 202 5 -3 7 0 6 8 -2 7 3 12 10 10 6 -1 11
4 10 10 -2 7 3 12 10 10 8 -1 11 1 8 6 -7 12 133 164 145 156 5 -3 8 0 7 8 -2
7 3 12 10 10 8 -1 11 1 8 6 -3 4 113 125 257 268 l262 259 -255 -260 -255
-260 257 254 c141 140 254 259 252 263 -7 10 176 199 186 193 3 -2 51 41 106
96 54 54 95 99 90 99 -4 0 4 14 19 31 26 31 26 32 7 53 -10 11 -389 448 -842
970 -453 521 -845 971 -871 1000 l-48 51 -1 -296z m1730 -1812 c0 -1 -44 -45
-97 -97 l-98 -95 95 98 c88 90 100 102 100 94z"/>
<path d="M6962 11631 c2 -5 265 -309 584 -677 320 -368 594 -684 609 -702 l28
-33 -155 -157 c-793 -806 -1048 -1067 -1048 -1074 0 -4 8 -8 18 -8 28 0 304
-87 415 -131 718 -285 1282 -888 1522 -1630 37 -115 88 -329 100 -426 l7 -53
-336 0 c-185 0 -336 -3 -336 -8 0 -7 1521 -1510 1707 -1686 l94 -88 57 49
c333 287 1827 1585 1890 1642 45 41 82 79 82 83 0 4 -117 8 -260 8 l-260 0 0
53 c-1 109 -44 435 -86 647 -97 482 -256 935 -484 1378 -508 987 -1324 1794
-2317 2291 -517 259 -1036 422 -1616 506 -187 27 -220 30 -215 16z"/>
<path d="M4580 8253 l-95 -98 98 95 c90 88 102 100 94 100 -1 0 -45 -44 -97
-97z"/>
<path d="M1949 7537 c-349 -303 -807 -701 -1016 -883 l-381 -331 91 -7 c49 -3
190 -6 312 -6 l223 0 6 -127 c4 -71 14 -198 22 -283 150 -1569 1012 -2998
2339 -3875 685 -453 1464 -737 2290 -835 189 -23 230 -89 -391 625 -301 347
-579 667 -617 713 l-70 83 198 199 c109 109 202 197 207 194 5 -3 7 0 6 8 -2
7 3 12 9 11 7 -2 12 3 10 10 -1 6 4 11 11 9 8 -1 11 1 8 6 -7 12 153 184 165
176 5 -3 8 0 7 8 -2 7 3 12 10 10 8 -1 11 1 8 6 -3 5 99 111 227 238 l232 229
-225 -230 -225 -230 227 224 c125 124 225 228 222 233 -3 4 18 33 47 63 34 36
47 56 38 59 -8 2 -65 16 -128 31 -458 108 -889 351 -1231 694 -413 415 -661
921 -745 1516 -8 60 -15 137 -15 172 l0 63 285 0 c157 0 285 4 285 8 0 10
-1789 1772 -1798 1772 -4 0 -293 -249 -643 -553z"/>
<path d="M2384 8018 l-19 -23 23 19 c12 11 22 21 22 23 0 8 -8 2 -26 -19z"/>
<path d="M11100 5648 c-316 -275 -655 -569 -752 -654 -97 -85 -181 -154 -185
-154 -4 0 -262 250 -573 555 -310 304 -565 553 -566 552 -1 -1 -14 -55 -29
-120 -72 -324 -229 -669 -429 -947 -432 -601 -1113 -998 -1843 -1075 l-63 -7
0 301 c0 166 -3 301 -7 301 -5 0 -251 -246 -548 -547 -297 -301 -695 -704
-884 -895 l-343 -347 22 -28 c12 -15 412 -477 888 -1026 l867 -998 3 299 2
299 103 7 c668 45 1302 207 1911 490 54 25 103 43 109 39 5 -3 7 -1 4 4 -8 13
20 26 36 16 7 -3 9 -2 4 2 -10 11 221 137 236 129 7 -4 9 -3 4 1 -10 12 81 67
96 59 7 -4 9 -4 5 1 -11 11 60 58 74 49 7 -5 8 -3 3 6 -6 10 -4 12 8 7 9 -3
19 -1 23 5 5 7 2 8 -7 4 -8 -4 -3 2 11 13 14 11 30 19 37 16 7 -2 15 1 19 7 5
7 2 8 -6 3 -9 -6 -11 -4 -6 4 5 7 14 10 22 7 8 -3 13 0 11 7 -1 7 6 12 15 12
9 0 20 4 25 9 5 5 2 6 -7 2 -8 -4 -4 2 10 13 14 11 32 19 40 18 8 -1 15 5 15
13 0 8 8 15 17 15 9 0 20 4 25 9 5 5 2 6 -6 1 -10 -6 -12 -4 -7 4 5 7 14 10
22 7 7 -3 16 0 20 6 5 7 2 8 -7 3 -12 -8 -12 -6 0 8 7 10 21 16 30 15 8 -2 16
4 16 12 0 8 9 15 20 15 11 0 20 7 20 15 0 8 8 15 17 15 10 0 23 7 30 15 11 12
10 12 -7 0 -19 -14 -19 -14 -6 3 8 10 20 16 27 13 7 -3 18 3 26 12 12 16 11
16 -7 2 -20 -15 -20 -15 -1 8 11 12 25 21 32 18 7 -3 18 3 26 12 12 16 11 16
-7 2 -20 -15 -20 -15 -1 8 11 12 25 21 32 18 7 -3 18 3 26 12 12 15 11 16 -7
3 -11 -7 -7 -2 8 13 16 14 32 24 36 21 5 -2 17 5 27 18 19 22 19 22 -2 7 -11
-8 -7 -2 8 13 16 15 33 25 37 23 4 -3 19 7 32 22 l24 27 -26 -20 c-14 -11 -8
-3 13 18 21 21 42 36 46 33 5 -3 42 29 82 69 41 41 70 75 65 75 -5 0 4 13 20
30 15 16 32 27 37 24 5 -3 7 0 6 8 -2 7 3 12 10 10 8 -1 11 1 8 6 -3 5 21 33
52 63 l57 54 -50 -55 -50 -55 52 49 c29 27 50 53 47 58 -3 4 14 27 38 51 24
24 32 29 18 12 l-25 -30 32 29 c17 15 29 34 27 40 -3 7 8 23 23 36 l28 25 -20
-25 -20 -25 22 19 c13 10 20 22 18 27 -3 4 7 20 21 36 15 15 20 19 13 8 -13
-18 -12 -19 3 -7 9 8 15 19 12 26 -3 7 6 21 18 32 23 19 23 19 8 -1 -14 -18
-14 -19 2 -6 10 7 16 17 13 21 -3 4 3 16 13 27 9 10 13 12 7 3 -9 -13 -8 -13
7 -2 9 8 15 19 12 26 -3 7 3 19 12 27 15 12 17 12 9 0 -5 -10 -4 -12 4 -7 6 4
9 11 6 15 -2 5 3 17 11 27 9 10 12 13 8 5 -5 -9 -3 -12 5 -7 6 4 9 11 6 15 -2
5 3 17 11 27 9 10 12 13 8 5 -5 -10 -3 -12 5 -7 7 5 10 10 7 13 -8 8 14 44 23
38 5 -2 8 3 7 13 0 9 5 16 12 14 6 -1 11 1 11 5 -3 19 2 34 9 29 5 -3 9 0 9 7
0 19 34 68 43 62 4 -3 7 3 6 13 0 9 4 16 10 15 7 -1 11 5 10 15 0 9 5 16 12
14 8 -1 11 2 7 7 -8 14 25 62 38 54 6 -3 7 -1 3 5 -9 15 18 55 29 44 5 -4 5
-2 1 5 -8 14 33 85 45 77 5 -3 6 3 2 12 -5 13 -3 15 7 9 8 -5 11 -4 7 3 -8 12
53 123 64 117 4 -3 6 1 5 8 0 6 47 109 106 227 207 419 347 824 437 1271 56
272 96 597 89 720 l-3 66 -575 -499z m-970 -2981 c0 -1 -33 -34 -72 -72 l-73
-70 70 73 c64 67 75 77 75 69z"/>
<path d="M4955 2798 l-190 -193 193 190 c105 104 192 191 192 192 0 8 -19 -11
-195 -189z"/>
</g>
</svg>
